# xmcd CD database file generated by LOLA_Freedb v0.9beta0
# 
# Track frame offsets:
#      150
#      16125
#      31265
#      54185
#      72795
#      85383
#      104320
#      119070
#      133523
#      147158
#      161908
#      173503
# 
# Disc length: 2436 seconds
# 
# Revision: 3 
# Processed by: cddbd v1.5.2PL0 Copyright (c) Steve Scherf et al.
# Submitted via: LOLA_Freedb v0.9beta0
# 
DISCID=9a09820c
DTITLE=A.J. Croce - A.J. Croce
DYEAR=1900
DGENRE=
TTITLE0=A.J. Croce - He's Got A Way With Women
TTITLE1=Which Way Steinway
TTITLE2=I Wonder
TTITLE3=How'd We Get So Good At Saying Good-bye
TTITLE4=I Found Faith
TTITLE5=Keep On Lookin'
TTITLE6=She Wouldn't Give Me None
TTITLE7=I Know Better now
TTITLE8=Back Where I Began
TTITLE9=Smokin' Good Time
TTITLE10=Stuff You Gotta Watch
TTITLE11=If I Could Be With You
EXTD=
EXTT0=
EXTT1=
EXTT2=
EXTT3=
EXTT4=
EXTT5=
EXTT6=
EXTT7=
EXTT8=
EXTT9=
EXTT10=
EXTT11=
PLAYORDER=
